<svg id="Livello_1" data-name="Livello 1" xmlns="http://www.w3.org/2000/svg" viewBox="0 0 36 36"><defs><style>.cls-1{fill:#02264b;}</style></defs><path class="cls-1" d="M23.62,11.17a1.25,1.25,0,1,0,1.25,1.25A1.24,1.24,0,0,0,23.62,11.17Z"/><path class="cls-1" d="M18.09,12.77A5.23,5.23,0,1,0,23.32,18,5.23,5.23,0,0,0,18.09,12.77Zm0,8.58A3.35,3.35,0,1,1,21.44,18,3.35,3.35,0,0,1,18.09,21.35Z"/><path class="cls-1" d="M22.24,28.62H13.76a6.38,6.38,0,0,1-6.38-6.38V13.76a6.38,6.38,0,0,1,6.38-6.38h8.48a6.38,6.38,0,0,1,6.38,6.38v8.48A6.38,6.38,0,0,1,22.24,28.62ZM13.76,9.38a4.39,4.39,0,0,0-4.38,4.38v8.48a4.39,4.39,0,0,0,4.38,4.38h8.48a4.39,4.39,0,0,0,4.38-4.38V13.76a4.39,4.39,0,0,0-4.38-4.38Z"/></svg>