<svg id="Livello_1" data-name="Livello 1" xmlns="http://www.w3.org/2000/svg" viewBox="0 0 36 36"><defs><style>.cls-1{fill:#02264b;}</style></defs><path class="cls-1" d="M28.33,11.48a8.5,8.5,0,0,1-2.11.6c.34-.05.84-.67,1-.92A3.76,3.76,0,0,0,28,9.89s0-.08,0-.11a.11.11,0,0,0-.11,0,10.51,10.51,0,0,1-2.5,1,.18.18,0,0,1-.17-.05,1.52,1.52,0,0,0-.22-.22,4.16,4.16,0,0,0-3.06-1,4.45,4.45,0,0,0-1.76.49,4.56,4.56,0,0,0-1.42,1.16,4.39,4.39,0,0,0-.85,1.7,4.74,4.74,0,0,0-.05,1.8c0,.1,0,.11-.08.1a13.32,13.32,0,0,1-8.58-4.37c-.1-.12-.16-.12-.24,0a4.35,4.35,0,0,0,.74,5.14,5.82,5.82,0,0,0,.53.46,4.17,4.17,0,0,1-1.66-.46c-.1-.06-.15,0-.16.09a2.8,2.8,0,0,0,0,.49,4.42,4.42,0,0,0,2.71,3.51,2.66,2.66,0,0,0,.55.16,4.53,4.53,0,0,1-1.62.05c-.12,0-.17,0-.12.15a4.56,4.56,0,0,0,3.41,2.86c.16,0,.31,0,.47.07l0,0c-.38.59-1.71,1-2.33,1.24a8.36,8.36,0,0,1-3.54.45c-.19,0-.23,0-.28,0s0,.08,0,.13c.24.16.49.3.74.44a11.59,11.59,0,0,0,2.37.94A12.58,12.58,0,0,0,23,23.21c2.51-2.49,3.39-5.93,3.39-9.37,0-.13.16-.21.25-.28a8.31,8.31,0,0,0,1.67-1.73.58.58,0,0,0,.11-.33v0C28.42,11.43,28.41,11.44,28.33,11.48Z"/></svg>